<svg width="403" height="454" viewBox="0 0 403 454" fill="none" xmlns="http://www.w3.org/2000/svg">
<path fill-rule="evenodd" clip-rule="evenodd" d="M189.931 12.047C245.384 9.41033 388.913 118.009 390.496 249.174C391.896 367.481 349.776 442 229.923 442C110.07 442 12.7413 345.813 12.7413 227.314C12.7413 108.878 41.35 19.0556 189.931 12.047Z" fill="#AEF59C" stroke="#235442" stroke-width="23.9899" stroke-miterlimit="1.5" stroke-linecap="round" stroke-linejoin="round"/>
<path fill-rule="evenodd" clip-rule="evenodd" d="M130.394 101.154C144.88 101.154 163.505 109.062 169.289 135.554C173.488 154.521 191.629 183.004 177.08 183.004C162.594 183.004 123.453 157.543 117.611 139.026C111.584 119.865 115.905 101.154 130.394 101.154Z" fill="#EDFEE9"/>
<path fill-rule="evenodd" clip-rule="evenodd" d="M252.07 93.5898C258.889 105.819 266.545 119.665 252.059 141.429C238.713 161.377 203.469 197.981 214.513 172.502C220.08 159.667 208.562 115.489 219.774 101.897C231.386 87.8548 245.282 81.4141 252.07 93.5898Z" fill="#EDFEE9"/>
<path fill-rule="evenodd" clip-rule="evenodd" d="M319.848 178.227C320.115 193.525 312.071 205 286.347 206.263C267.909 207.201 238.627 216.788 244.617 202.786C250.582 188.841 277.332 164.567 295.844 165.01C301.487 165.087 319.492 162.818 319.848 178.227Z" fill="#EDFEE9"/>
<path fill-rule="evenodd" clip-rule="evenodd" d="M311.573 295.199C298.193 301.06 296.969 298.951 281.798 283.809C268.312 270.437 221.212 248.819 234.592 242.955C247.973 237.092 298.848 240.285 310.903 255.052C323.394 270.253 324.956 289.337 311.573 295.199Z" fill="#EDFEE9"/>
<path fill-rule="evenodd" clip-rule="evenodd" d="M217.109 378.06C205.973 368.275 196.444 349.613 208.038 325.342C216.292 307.923 212.44 259.541 223.576 269.326C234.76 279.155 256.589 339.406 249.867 357.586C242.897 376.387 228.245 387.85 217.109 378.06Z" fill="#EDFEE9"/>
<path fill-rule="evenodd" clip-rule="evenodd" d="M98.6435 327.932C95.6905 312.951 107.155 292.893 130.528 281.514C147.254 273.305 179.41 244.362 182.364 259.345C185.318 274.329 162.653 319.899 149.565 333.615C134.225 349.792 101.6 342.912 98.6435 327.932Z" fill="#EDFEE9"/>
<path fill-rule="evenodd" clip-rule="evenodd" d="M58.3295 200.168C68.7389 189.522 85.801 174.399 107.357 189.134C122.911 199.72 171.32 212.231 160.91 222.876C155.882 228.019 137.647 229.756 121.328 238.484C98.6292 250.504 81.9211 251.043 73.4274 246.305C56.5209 237.014 47.9224 210.813 58.3295 200.168Z" fill="#EDFEE9"/>
</svg>
