<svg width="286" height="420" viewBox="0 0 286 420" fill="none" xmlns="http://www.w3.org/2000/svg">
<path fill-rule="evenodd" clip-rule="evenodd" d="M283.462 157.57C283.462 118.216 247.582 49.2015 190.203 17.2891C190.203 17.2891 170.712 8.013 160.907 4.76603C128.514 -5.92599 0.529541 -0.318611 0.529541 39.036C20.2258 37.9355 40.9856 41.1839 63.0157 44.5385C99.3088 50.0933 137.609 60.9926 169.916 91.0185C180.548 100.87 187.723 117.378 197.232 130.636C266.186 308.54 39.5397 412.927 71.8729 419.32C88.6177 422.569 131.141 413.609 147.766 404.49C172.749 390.709 192.092 377.452 208.304 361.782C219.585 350.935 228.592 338.882 240.108 324.681C259.923 300.209 268.341 282.34 276.312 258.654C286.563 228.156 288.038 196.662 283.462 157.57Z" fill="#FFCFFD"/>
<path fill-rule="evenodd" clip-rule="evenodd" d="M283.462 157.57C283.462 118.216 247.582 49.2015 190.203 17.2891C190.203 17.2891 170.712 8.013 160.907 4.76603C128.514 -5.92599 0.529541 -0.318611 0.529541 39.036C41.7242 25.096 110.117 14.8253 166.432 39.2447C199.831 53.7074 227.856 83.3671 246.548 123.613C299.261 315.196 36.5855 415.389 71.8729 419.32C88.6756 421.153 131.141 413.609 147.766 404.49C172.749 390.709 192.092 377.452 208.304 361.782C219.585 350.935 228.592 338.882 240.108 324.681C259.923 300.209 268.341 282.34 276.312 258.655C286.563 228.156 288.038 196.662 283.462 157.57Z" fill="#C268BE"/>
</svg>
