<svg width="288" height="420" viewBox="0 0 288 420" fill="none" xmlns="http://www.w3.org/2000/svg">
<path fill-rule="evenodd" clip-rule="evenodd" d="M286.088 3.88506C282.845 1.98874 280.441 2.27322 276.975 1.89369C194.284 -7.82724 126.301 21.1468 74.9771 59.746C-14.475 127.131 -26.6639 269.392 53.4522 342.562C63.7394 351.952 79.785 374.096 129.432 397.997C158.28 411.843 199.598 419.952 257.517 420C265.121 420 274.905 419.528 280.049 417.582C281.302 416.745 282.306 415.584 282.955 414.224C283.604 412.864 283.875 411.353 283.737 409.852C281.279 373.007 274.346 235.014 274.346 172.371C274.346 123.717 280.999 29.3502 287.429 8.3424C288.603 4.69132 286.088 3.88506 286.088 3.88506Z" fill="#DC3B42"/>
<path fill-rule="evenodd" clip-rule="evenodd" d="M284.47 21.7198C204.326 9.27131 141.847 36.1272 92.8407 73.0802C10.9031 134.932 -0.261157 265.51 73.1238 332.672C82.5467 341.29 97.2441 361.615 142.719 383.553C172.575 397.917 272.794 406.1 280.885 403.314C280.885 403.314 283.702 401.355 283.548 398.309C282.115 371.496 274.331 238.568 274.331 178.808C274.331 128.099 284.47 21.7198 284.47 21.7198Z" fill="#EB5443"/>
<path fill-rule="evenodd" clip-rule="evenodd" d="M268.037 75.1694C265.412 72.632 262.018 71.6302 257.888 71.0639C231.92 67.5585 180.369 87.2612 151.319 110.568C95.569 155.33 87.6925 249.059 137.845 297.396C144.285 303.598 154.327 318.226 185.407 334.016C205.811 344.355 263.383 354.503 267.337 340.72C268.106 339.686 267.232 335.332 262.892 329.597C247.282 308.828 222.295 254.07 218.024 217.324C213.79 180.737 238.009 133.246 264.746 101.576C271.816 93.2124 272.201 85.162 270.941 80.3056C270.51 78.3411 269.498 76.5516 268.037 75.1694Z" fill="#DC3B42"/>
<path fill-rule="evenodd" clip-rule="evenodd" d="M211.93 268.984C221.698 275.265 210.397 292.094 203.478 305.739C196.947 318.548 177.943 320.75 168.174 314.466C158.405 308.182 155.377 291.728 168.129 283.001C181.727 273.571 202.163 262.702 211.93 268.984Z" fill="#FFB169"/>
<path fill-rule="evenodd" clip-rule="evenodd" d="M199.355 228.751C204.7 238.253 182.656 249.071 166.958 258.715C152.186 267.758 132.283 262.323 126.935 252.82C121.587 243.316 129.474 227.237 147.602 224.324C167.011 221.101 194.006 219.248 199.355 228.751Z" fill="#FFB169"/>
<path fill-rule="evenodd" clip-rule="evenodd" d="M199.347 189.849C198.559 199.707 173.319 199.813 154.242 201.471C136.31 203.005 122.191 190.706 122.981 180.85C123.771 170.993 139.762 160.999 157.101 165.786C175.73 170.83 200.137 179.988 199.347 189.849Z" fill="#FFB169"/>
<path fill-rule="evenodd" clip-rule="evenodd" d="M208.999 168.407C200.334 172.638 185.756 155.249 173.423 142.867C161.849 131.224 163.983 115.509 172.651 111.276C181.319 107.044 198.816 113.252 204.784 127.553C211.278 142.867 217.662 164.174 208.999 168.407Z" fill="#FFB169"/>
</svg>
