<?xml version="1.0" encoding="UTF-8" standalone="no"?>
<!DOCTYPE svg PUBLIC "-//W3C//DTD SVG 1.1//EN" "http://www.w3.org/Graphics/SVG/1.1/DTD/svg11.dtd">
<svg width="100%" height="100%" viewBox="0 0 471 70" version="1.1" xmlns="http://www.w3.org/2000/svg" xmlns:xlink="http://www.w3.org/1999/xlink" xml:space="preserve" xmlns:serif="http://www.serif.com/" style="fill-rule:evenodd;clip-rule:evenodd;stroke-linejoin:round;stroke-miterlimit:2;">
    <g transform="matrix(1,0,0,1,-164.703,-265.204)">
        <g transform="matrix(1,0,0,1,-13.7467,-31.1116)">
            <path d="M211.299,365.907C205.008,365.907 199.321,364.335 194.239,361.189C189.158,358.043 185.256,353.96 182.533,348.938C179.811,343.917 178.45,338.564 178.45,332.877C178.45,327.856 179.312,323.228 181.036,318.993C182.76,314.759 185.059,311.265 187.933,308.512C190.806,305.76 194.073,303.612 197.733,302.07C201.393,300.527 205.159,299.756 209.03,299.756C216.653,299.756 223.005,301.389 228.086,304.656C233.168,307.923 235.709,311.885 235.709,316.543C235.709,318.782 235.043,320.566 233.713,321.897C232.382,323.228 230.627,323.893 228.449,323.893C226.635,323.893 224.956,323.455 223.413,322.578C221.871,321.7 220.57,320.612 219.511,319.311C218.453,318.01 217.349,316.589 216.199,315.046C215.05,313.503 213.991,312.082 213.023,310.781C212.055,309.48 210.876,308.391 209.484,307.514C208.093,306.637 206.58,306.199 204.947,306.199C201.801,306.199 199.245,307.696 197.279,310.69C195.313,313.685 194.33,317.481 194.33,322.079C194.33,331.032 196.357,338.715 200.41,345.127C204.463,351.54 209.333,354.746 215.019,354.746C217.076,354.746 218.77,354.444 220.101,353.839L220.101,341.951C220.101,340.378 219.254,338.866 217.56,337.414C215.866,335.962 215.019,334.873 215.019,334.147L215.019,333.784C215.019,333.24 215.261,332.801 215.745,332.469C216.229,332.136 216.804,331.97 217.47,331.97L237.705,332.06C239.157,332.06 239.883,332.665 239.883,333.875L239.883,334.238C239.883,334.964 239.142,336.053 237.66,337.505C236.178,338.957 235.437,340.469 235.437,342.042L235.437,352.568C235.437,355.109 234.166,357.378 231.625,359.374C226.12,363.73 219.345,365.907 211.299,365.907Z" style="fill-rule:nonzero;"/>
            <path d="M246.054,365C244.602,365 243.876,364.425 243.876,363.276L243.876,362.913C243.876,362.187 244.481,361.068 245.691,359.555C246.901,358.043 247.505,356.531 247.505,355.018L247.505,337.777C247.505,336.204 246.901,334.677 245.691,333.195C244.481,331.712 243.876,330.699 243.876,330.155L243.876,329.792C243.876,329.066 244.571,328.37 245.963,327.705L259.665,320.99C260.935,320.445 261.934,320.385 262.66,320.808C263.386,321.232 263.748,321.927 263.748,322.895L263.748,355.018C263.748,356.531 264.429,358.043 265.79,359.555C267.151,361.068 267.832,362.187 267.832,362.913L267.832,363.276C267.832,364.425 267.106,365 265.654,365L246.054,365ZM248.231,313.549C246.296,311.794 245.328,309.617 245.328,307.015C245.328,304.414 246.296,302.251 248.231,300.527C250.167,298.803 252.678,297.941 255.763,297.941C258.788,297.941 261.268,298.803 263.204,300.527C265.14,302.251 266.108,304.414 266.108,307.015C266.108,309.617 265.14,311.779 263.204,313.503C261.268,315.227 258.788,316.09 255.763,316.09C252.678,316.09 250.167,315.243 248.231,313.549Z" style="fill-rule:nonzero;"/>
            <path d="M290.881,365C289.489,365 288.4,364.214 287.614,362.641L273.821,331.334C273.337,330.245 272.414,328.899 271.053,327.296C269.692,325.693 269.012,324.438 269.012,323.53L269.012,323.167C269.012,322.018 269.707,321.443 271.099,321.443L291.97,321.443C293.3,321.443 293.966,322.048 293.966,323.258L293.966,323.621C293.966,324.226 293.709,324.937 293.195,325.754C292.68,326.57 292.302,327.311 292.06,327.977C291.818,328.642 291.939,329.852 292.423,331.607L300.227,352.205L306.851,333.875C307.517,331.334 307.608,329.565 307.124,328.567C306.64,327.569 305.929,326.631 304.991,325.754C304.054,324.876 303.585,324.166 303.585,323.621L303.585,323.258C303.585,322.048 304.28,321.443 305.672,321.443L317.741,321.443C319.132,321.443 319.828,322.018 319.828,323.167L319.828,323.53C319.828,324.377 318.95,325.557 317.196,327.069C315.442,328.582 314.292,330.003 313.748,331.334L302.042,362.641C301.498,364.214 300.439,365 298.866,365L290.881,365Z" style="fill-rule:nonzero;"/>
            <path d="M341.606,365.907C335.012,365.907 329.628,363.79 325.454,359.555C321.28,355.321 319.192,349.785 319.192,342.949C319.192,336.416 321.385,331.047 325.771,326.843C330.157,322.638 335.405,320.536 341.515,320.536C347.081,320.536 351.361,321.806 354.355,324.347C357.35,326.888 358.847,329.761 358.847,332.968C358.847,335.509 357.668,337.384 355.308,338.594L337.25,348.757C339.731,352.689 343.179,354.655 347.595,354.655C349.47,354.655 351.255,354.277 352.949,353.521C354.643,352.765 355.883,351.812 356.669,350.663C357.335,349.997 358.076,349.801 358.893,350.073C359.709,350.345 360.087,350.965 360.027,351.933C359.906,354.958 358.167,358.043 354.809,361.189C351.452,364.335 347.051,365.907 341.606,365.907ZM333.802,334.51C333.802,338.14 334.256,341.316 335.163,344.038L343.602,338.957C345.175,337.928 345.962,336.386 345.962,334.329C345.962,332.333 345.463,330.276 344.464,328.158C343.466,326.041 341.969,324.982 339.973,324.982C338.097,324.982 336.6,325.89 335.481,327.705C334.362,329.519 333.802,331.788 333.802,334.51Z" style="fill-rule:nonzero;"/>
            <path d="M419.464,365.544C416.62,365.544 414.533,365.212 413.202,364.546C411.871,363.881 411.024,362.731 410.661,361.098C408.423,364.304 404.582,365.907 399.137,365.907C394.055,365.907 389.912,364.728 386.705,362.368C383.499,360.009 381.896,356.591 381.896,352.114C381.896,347.759 383.469,344.356 386.615,341.906C389.76,339.456 393.632,338.231 398.23,338.231C401.799,338.231 404.854,338.987 407.395,340.499L407.395,340.227C406.85,334.299 406.185,330.261 405.398,328.113C404.612,325.965 403.13,324.892 400.952,324.892C399.561,324.892 398.441,325.527 397.594,326.797C396.748,328.068 396.127,329.459 395.734,330.971C395.341,332.484 394.6,333.875 393.511,335.146C392.422,336.416 390.97,337.051 389.155,337.051C387.219,337.051 385.677,336.507 384.527,335.418C383.378,334.329 382.803,332.907 382.803,331.153C382.803,327.644 384.558,324.997 388.066,323.213C391.575,321.428 395.87,320.536 400.952,320.536C407.062,320.536 412.098,322.184 416.061,325.481C420.023,328.778 422.337,333.24 423.002,338.866L424.999,355.109C425.18,356.561 425.528,357.725 426.042,358.603C426.557,359.48 427.071,360.039 427.585,360.281C428.099,360.523 428.568,360.826 428.992,361.189C429.415,361.552 429.627,362.005 429.627,362.55C429.627,364.546 426.239,365.544 419.464,365.544ZM398.139,349.211C398.139,352.598 398.683,355.457 399.772,357.786C400.861,360.115 402.313,361.28 404.128,361.28C405.519,361.28 406.638,360.614 407.485,359.283C408.332,357.952 408.756,356.44 408.756,354.746L408.393,350.481C407.788,345.52 405.913,343.04 402.767,343.04C401.375,343.04 400.256,343.6 399.409,344.719C398.562,345.838 398.139,347.335 398.139,349.211Z" style="fill-rule:nonzero;"/>
            <path d="M451.042,365C449.59,365 448.864,364.425 448.864,363.276L448.864,362.913C448.864,362.126 449.424,360.992 450.543,359.51C451.662,358.028 452.343,356.531 452.585,355.018L459.481,310.554C459.723,308.981 459.194,307.439 457.893,305.926C456.593,304.414 455.942,303.325 455.942,302.66L455.942,302.297C455.942,301.147 456.638,300.572 458.029,300.572L470.098,300.572C472.578,300.572 474.182,301.661 474.907,303.839L488.065,342.314L500.769,304.021C501.616,301.722 503.189,300.572 505.488,300.572L517.92,300.572C519.311,300.572 520.007,301.147 520.007,302.297L520.007,302.66C520.007,303.265 519.326,304.353 517.965,305.926C516.604,307.499 516.075,309.102 516.377,310.736L524.725,355.018C525.028,356.531 525.724,358.028 526.812,359.51C527.901,360.992 528.446,362.126 528.446,362.913L528.446,363.276C528.446,364.425 527.72,365 526.268,365L507.393,365C505.942,365 505.216,364.425 505.216,363.276L505.216,362.913C505.216,362.308 505.821,361.234 507.031,359.692C508.24,358.149 508.694,356.591 508.392,355.018L502.947,323.44L489.063,362.278C488.458,364.032 487.37,364.909 485.797,364.909C483.982,364.909 482.742,364.062 482.076,362.368L466.105,321.897L461.205,355.018C460.963,356.591 461.447,358.134 462.657,359.646C463.867,361.159 464.472,362.247 464.472,362.913L464.472,363.276C464.472,364.425 463.746,365 462.294,365L451.042,365Z" style="fill-rule:nonzero;"/>
            <path d="M553.128,365.907C546.534,365.907 541.15,363.79 536.976,359.555C532.802,355.321 530.714,349.785 530.714,342.949C530.714,336.416 532.907,331.047 537.293,326.843C541.679,322.638 546.927,320.536 553.037,320.536C558.603,320.536 562.883,321.806 565.877,324.347C568.872,326.888 570.369,329.761 570.369,332.968C570.369,335.509 569.189,337.384 566.83,338.594L548.772,348.757C551.253,352.689 554.701,354.655 559.117,354.655C560.992,354.655 562.777,354.277 564.471,353.521C566.165,352.765 567.405,351.812 568.191,350.663C568.857,349.997 569.598,349.801 570.415,350.073C571.231,350.345 571.609,350.965 571.549,351.933C571.428,354.958 569.689,358.043 566.331,361.189C562.974,364.335 558.573,365.907 553.128,365.907ZM545.324,334.51C545.324,338.14 545.778,341.316 546.685,344.038L555.124,338.957C556.697,337.928 557.484,336.386 557.484,334.329C557.484,332.333 556.985,330.276 555.986,328.158C554.988,326.041 553.491,324.982 551.495,324.982C549.619,324.982 548.122,325.89 547.003,327.705C545.884,329.519 545.324,331.788 545.324,334.51Z" style="fill-rule:nonzero;"/>
            <path d="M613.109,365.544C610.266,365.544 608.179,365.212 606.848,364.546C605.517,363.881 604.67,362.731 604.307,361.098C602.069,364.304 598.227,365.907 592.783,365.907C587.701,365.907 583.557,364.728 580.351,362.368C577.145,360.009 575.541,356.591 575.541,352.114C575.541,347.759 577.114,344.356 580.26,341.906C583.406,339.456 587.278,338.231 591.875,338.231C595.444,338.231 598.499,338.987 601.04,340.499L601.04,340.227C600.496,334.299 599.83,330.261 599.044,328.113C598.257,325.965 596.775,324.892 594.598,324.892C593.206,324.892 592.087,325.527 591.24,326.797C590.393,328.068 589.773,329.459 589.38,330.971C588.987,332.484 588.246,333.875 587.157,335.146C586.068,336.416 584.616,337.051 582.801,337.051C580.865,337.051 579.322,336.507 578.173,335.418C577.024,334.329 576.449,332.907 576.449,331.153C576.449,327.644 578.203,324.997 581.712,323.213C585.221,321.428 589.516,320.536 594.598,320.536C600.708,320.536 605.744,322.184 609.706,325.481C613.669,328.778 615.983,333.24 616.648,338.866L618.644,355.109C618.826,356.561 619.174,357.725 619.688,358.603C620.202,359.48 620.716,360.039 621.231,360.281C621.745,360.523 622.214,360.826 622.637,361.189C623.061,361.552 623.272,362.005 623.272,362.55C623.272,364.546 619.885,365.544 613.109,365.544ZM591.784,349.211C591.784,352.598 592.329,355.457 593.418,357.786C594.507,360.115 595.959,361.28 597.774,361.28C599.165,361.28 600.284,360.614 601.131,359.283C601.978,357.952 602.401,356.44 602.401,354.746L602.038,350.481C601.433,345.52 599.558,343.04 596.412,343.04C595.021,343.04 593.902,343.6 593.055,344.719C592.208,345.838 591.784,347.335 591.784,349.211Z" style="fill-rule:nonzero;"/>
            <path d="M627.265,365C625.874,365 625.178,364.425 625.178,363.276L625.178,362.913C625.178,362.187 625.768,361.083 626.947,359.601C628.127,358.119 628.717,356.621 628.717,355.109L628.717,313.639C628.717,312.067 628.127,310.539 626.947,309.057C625.768,307.575 625.178,306.531 625.178,305.926L625.178,305.563C625.178,304.898 625.843,304.202 627.174,303.476L640.876,296.761C642.147,296.217 643.16,296.171 643.916,296.625C644.673,297.079 645.051,297.759 645.051,298.667L645.051,355.109C645.051,356.621 645.716,358.119 647.047,359.601C648.378,361.083 649.043,362.187 649.043,362.913L649.043,363.276C649.043,364.425 648.317,365 646.865,365L627.265,365Z" style="fill-rule:nonzero;"/>
        </g>
    </g>
</svg>
