<svg width="36" height="33" viewBox="0 0 36 33" fill="none" xmlns="http://www.w3.org/2000/svg">
<path d="M24.4292 12.9779L28.7363 3.24668C29.0175 2.61163 29.5395 2.11431 30.1874 1.86409C30.8353 1.61388 31.5561 1.63126 32.1911 1.91243C32.2474 1.93718 32.3036 1.96474 32.3599 1.99343C32.6639 2.15475 32.9332 2.37443 33.1523 2.63989C33.3713 2.90535 33.536 3.21139 33.6367 3.54051C33.7374 3.86963 33.7723 4.21538 33.7393 4.55798C33.7063 4.90059 33.6061 5.23333 33.4444 5.53718C33.4151 5.59343 33.3842 5.6463 33.351 5.69918L27.9926 14.2604" stroke="#212121" stroke-width="2" stroke-miterlimit="10"/>
<path d="M1.125 23.625H34.875" stroke="#212121" stroke-width="2" stroke-miterlimit="10" stroke-linecap="square"/>
<path d="M32.625 23.625L30.4189 28.7724C30.072 29.5819 29.4952 30.2718 28.76 30.7567C28.0248 31.2415 27.1635 31.5 26.2828 31.5H9.71719C8.83651 31.5 7.9752 31.2415 7.23999 30.7567C6.50478 30.2718 5.928 29.5819 5.58112 28.7724L3.375 23.625" stroke="#212121" stroke-width="2" stroke-miterlimit="10"/>
<path d="M17.4375 8.4375V9.5625C16.244 9.5625 15.0994 9.08839 14.2555 8.24448C13.4116 7.40057 12.9375 6.25597 12.9375 5.0625V3.9375C14.131 3.9375 15.2756 4.41161 16.1195 5.25552C16.9634 6.09943 17.4375 7.24403 17.4375 8.4375Z" stroke="#212121" stroke-width="2" stroke-miterlimit="10" stroke-linecap="square"/>
<path d="M15.75 20.8125C15.75 18.7239 16.5797 16.7209 18.0565 15.244C19.5334 13.7672 21.5364 12.9375 23.625 12.9375C25.7136 12.9375 27.7166 13.7672 29.1935 15.244C30.6703 16.7209 31.5 18.7239 31.5 20.8125" stroke="#212121" stroke-width="2" stroke-miterlimit="10"/>
<path d="M20.25 20.8125C20.25 19.9174 20.6056 19.0589 21.2385 18.426C21.8714 17.7931 22.7299 17.4375 23.625 17.4375C24.5201 17.4375 25.3786 17.7931 26.0115 18.426C26.6444 19.0589 27 19.9174 27 20.8125" stroke="#212121" stroke-width="2" stroke-miterlimit="10"/>
<path d="M4.5 20.8124C4.49977 19.248 4.96553 17.7189 5.83788 16.4202C6.71023 15.1215 7.94962 14.1121 9.398 13.5207C10.8464 12.9292 12.4381 12.7826 13.9701 13.0995C15.5022 13.4164 16.9051 14.1825 18 15.2999" stroke="#212121" stroke-width="2" stroke-miterlimit="10"/>
<path d="M9 20.8125C9 19.9174 9.35558 19.0589 9.98851 18.426C10.6214 17.7931 11.4799 17.4375 12.375 17.4375" stroke="#212121" stroke-width="2" stroke-miterlimit="10"/>
</svg>
