<svg width="36" height="36" viewBox="0 0 36 36" fill="none" xmlns="http://www.w3.org/2000/svg">
<path d="M30.375 7.3125H5.625" stroke="#212121" stroke-width="2" stroke-miterlimit="10" stroke-linecap="square"/>
<path d="M15.1875 21.375H9.5625V27H15.1875V21.375Z" stroke="#212121" stroke-width="2" stroke-miterlimit="10" stroke-linecap="square"/>
<path d="M4.5 20.25V34.3125H20.25V24.1875H27V34.3125H31.5V20.25" stroke="#212121" stroke-width="2" stroke-miterlimit="10" stroke-linecap="square"/>
<path d="M30.375 7.3125V1.6875H5.625V7.3125L1.125 12.9375C1.125 15.1121 2.88788 16.875 5.0625 16.875C6.31912 16.875 7.43513 16.2844 8.15625 15.3681C8.87737 16.2844 9.99338 16.875 11.25 16.875C12.6849 16.875 13.9371 16.1049 14.625 14.958C15.3129 16.1049 16.5651 16.875 18 16.875C19.4349 16.875 20.6871 16.1049 21.375 14.958C22.0629 16.1049 23.3151 16.875 24.75 16.875C26.0066 16.875 27.1226 16.2844 27.8438 15.3681C28.5649 16.2844 29.6809 16.875 30.9375 16.875C33.1121 16.875 34.875 15.1121 34.875 12.9375L30.375 7.3125Z" stroke="#212121" stroke-width="2" stroke-miterlimit="10" stroke-linecap="square"/>
</svg>
